<svg width="41" height="37" fill="none" xmlns="http://www.w3.org/2000/svg"><circle cx="15" cy="22" r="15" fill="#F1F0FB"/><g clip-path="url(#a)" fill="#224DE5"><path d="M40.753 26H11.247a.251.251 0 0 1-.247-.256V.256c0-.142.11-.256.247-.256h29.506c.137 0 .247.114.247.256v25.488c0 .142-.11.256-.247.256zm-29.26-.511h29.014V.511H11.493v24.978z"/><path d="M40.754 26H27.678a.245.245 0 0 1-.214-.13l-.099-.18a.262.262 0 0 1 .061-.326l1.896-1.567a7.619 7.619 0 0 1-.295-1.146l-2.398-.372a.253.253 0 0 1-.21-.253v-1.201c0-.127.089-.235.21-.253l2.398-.372c.067-.383.166-.766.295-1.145l-1.896-1.568a.261.261 0 0 1-.06-.327l.67-1.202a.242.242 0 0 1 .304-.11l2.259.92c.244-.296.514-.576.808-.837l-.89-2.34a.26.26 0 0 1 .107-.316l1.161-.694a.241.241 0 0 1 .316.063l1.511 1.968c.351-.131.72-.235 1.103-.308l.363-2.487a.25.25 0 0 1 .244-.218h1.337a.25.25 0 0 1 .244.218l.36 2.487a6.91 6.91 0 0 1 1.106.308l1.51-1.968a.24.24 0 0 1 .317-.063l.681.408c.077.046.124.13.124.221v1.549a.26.26 0 0 1-.017.094l-.413 1.079c.131.116.248.226.355.333a.261.261 0 0 1 .075.183v9.297c0 .141-.11.255-.247.255zm-12.69-.511h12.443v-8.931a7.877 7.877 0 0 0-.389-.352.262.262 0 0 1-.072-.29l.46-1.206v-1.352l-.374-.223-1.49 1.94a.241.241 0 0 1-.283.08 6.43 6.43 0 0 0-1.354-.378.251.251 0 0 1-.204-.214l-.356-2.452h-.913l-.358 2.452a.252.252 0 0 1-.205.214 6.38 6.38 0 0 0-1.35.378.24.24 0 0 1-.283-.08l-1.49-1.94-.794.473.877 2.308c.04.104.01.221-.073.292-.37.312-.704.658-.992 1.027a.24.24 0 0 1-.282.077l-2.227-.908-.458.822 1.87 1.545a.262.262 0 0 1 .077.29c-.17.464-.292.936-.36 1.404a.252.252 0 0 1-.208.214l-2.366.367v.762l2.366.367a.25.25 0 0 1 .207.214c.068.467.19.94.36 1.404a.262.262 0 0 1-.076.29l-1.704 1.408.002-.002zM40.753 5.677H11.247A.251.251 0 0 1 11 5.422c0-.141.11-.256.247-.256h29.506c.137 0 .247.115.247.256 0 .14-.11.255-.247.255zM14.226 3.906c-.599 0-1.085-.503-1.085-1.122 0-.62.486-1.127 1.085-1.127.598 0 1.087.506 1.087 1.127 0 .62-.488 1.122-1.087 1.122zm0-1.738a.605.605 0 0 0-.592.616.6.6 0 0 0 .592.611.604.604 0 0 0 .594-.611.607.607 0 0 0-.594-.616zM17.866 3.906c-.598 0-1.085-.503-1.085-1.122 0-.62.487-1.127 1.085-1.127.599 0 1.087.506 1.087 1.127 0 .62-.488 1.122-1.087 1.122zm0-1.738a.598.598 0 0 0-.592.616c0 .345.265.611.592.611a.603.603 0 0 0 .593-.611.606.606 0 0 0-.593-.616zM40.753 3.04H24.361a.251.251 0 0 1-.247-.256c0-.141.11-.255.247-.255h16.392c.136 0 .247.114.247.255 0 .141-.11.256-.247.256zM37.205 9.699h-22.41a.251.251 0 0 1-.246-.256V7.85c0-.141.11-.256.247-.256h22.41c.135 0 .246.115.246.256v1.593c0 .141-.11.256-.247.256zm-22.163-.511H36.96V8.105H15.042v1.083zM27.654 13.034H14.7a.251.251 0 0 1-.246-.256c0-.14.11-.255.246-.255h12.954c.136 0 .246.114.246.255 0 .141-.11.256-.246.256zM19.413 14.64H14.7a.251.251 0 0 1-.246-.256c0-.142.11-.256.246-.256h4.714c.136 0 .246.114.246.256 0 .14-.11.255-.246.255zM25.083 16.248H14.7a.251.251 0 0 1-.246-.256c0-.14.11-.255.246-.255h10.383c.136 0 .246.114.246.255 0 .142-.11.256-.246.256zM22.302 17.854H14.7a.251.251 0 0 1-.246-.256c0-.14.11-.255.246-.255h7.602c.136 0 .247.114.247.255 0 .142-.11.256-.247.256zM25.029 19.459H14.7a.251.251 0 0 1-.246-.256c0-.14.11-.255.246-.255H25.03c.136 0 .246.114.246.255 0 .142-.11.256-.246.256zM22.06 21.068H14.7a.251.251 0 0 1-.246-.256c0-.14.11-.255.246-.255h7.36c.136 0 .247.114.247.256 0 .14-.11.255-.247.255z"/></g><path stroke="#224DE5" d="M11.5.5h29v25h-29z"/><defs><clipPath id="a"><path fill="#fff" d="M11 0h30v26H11z"/></clipPath></defs></svg>