<svg width="43" height="37" fill="none" xmlns="http://www.w3.org/2000/svg"><circle cx="15" cy="22" r="15" fill="#F1F0FB"/><g clip-path="url(#a)" fill="#F15A24"><path d="M42.737 25H11.263a.267.267 0 0 1-.263-.271V.271c0-.15.117-.272.263-.272h31.474c.146 0 .263.121.263.272v24.456c0 .15-.117.272-.263.272zm-31.211-.543h30.948V.543H11.526v23.914z"/><path d="M42.737 6.036H11.263A.267.267 0 0 1 11 5.764c0-.15.117-.271.263-.271h31.474c.146 0 .263.121.263.271 0 .15-.117.272-.263.272zM17.436 3.137h-3.479a.274.274 0 0 1-.271-.271c0-.15.109-.272.255-.272H17.597c.146 0 .263.121.263.272 0 .15-.117.271-.263.271h-.162zM34.413 16.278a.267.267 0 0 1-.263-.271V13.8h-14.3v2.206c0 .15-.117.271-.262.271a.267.267 0 0 1-.263-.271V13.53c0-.15.117-.272.263-.272h14.825c.145 0 .263.121.263.272v2.477c0 .15-.118.271-.263.271z"/><path d="M26.998 16.078a.267.267 0 0 1-.263-.272v-4.9c0-.15.117-.271.263-.271.146 0 .263.121.263.271v4.9c0 .15-.117.272-.263.272zM19.588 19.582c-.797 0-1.444-.668-1.444-1.487 0-.819.647-1.491 1.444-1.491.796 0 1.44.668 1.44 1.491 0 .823-.648 1.487-1.44 1.487zm0-2.435c-.506 0-.915.426-.915.948s.413.944.915.944c.501 0 .914-.422.914-.944s-.413-.948-.914-.948zM34.4 19.582c-.797 0-1.444-.668-1.444-1.487 0-.819.647-1.491 1.444-1.491.797 0 1.444.668 1.444 1.491 0 .823-.647 1.487-1.444 1.487zm0-2.435c-.505 0-.918.426-.918.948s.413.944.918.944a.932.932 0 0 0 .919-.944c0-.522-.413-.948-.919-.948z"/><path d="M26.998 18.513c-.797 0-1.444-.668-1.444-1.487 0-.819.647-1.491 1.444-1.491.797 0 1.444.668 1.444 1.49 0 .824-.647 1.488-1.444 1.488zm0-2.435c-.506 0-.918.426-.918.948s.412.944.918.944a.932.932 0 0 0 .918-.944c0-.522-.412-.948-.918-.948zM28.224 11.178h-2.448a.267.267 0 0 1-.263-.272V8.38c0-.15.118-.271.263-.271h2.448c.145 0 .262.12.262.271v2.527c0 .15-.117.272-.262.272zm-2.185-.543h1.922V8.65h-1.922v1.984zM39.602 22.477H14.398a.267.267 0 0 1-.263-.271c0-.15.117-.272.263-.272h25.2c.146 0 .263.121.263.271 0 .15-.117.272-.263.272h.004z"/></g><path stroke="#F15A24" d="M11.5.5h31v24h-31z"/><defs><clipPath id="a"><path fill="#fff" d="M11 0h32v25H11z"/></clipPath></defs></svg>