<svg width="224" height="36" fill="none" xmlns="http://www.w3.org/2000/svg"><path fill-rule="evenodd" clip-rule="evenodd" d="M21.916 11.16H44.09l2.306 4.003a.874.874 0 0 1-.761 1.306H25.463a.905.905 0 0 1-.762-.435l-2.785-4.874zM3.508 11.16h10.88c.87 0 1.675.457 2.11 1.218l.261.457c.936 1.61-.24 3.634-2.11 3.634H4.639c-1.871 0-3.024-2.024-2.11-3.634l.979-1.675zM9.644.541H36.56c.87 0 1.676.457 2.11 1.219l.262.457c.936 1.61-.24 3.633-2.11 3.633H10.775c-1.872 0-3.025-2.023-2.111-3.633L9.645.54z" fill="#224DE5"/><path fill-rule="evenodd" clip-rule="evenodd" d="m9.644.541 16.32 28.265c.413.697-.11 1.589-.915 1.589H21.35c-.37 0-.718-.196-.914-.522L6.881 6.373a1.002 1.002 0 0 1 0-1.045L9.644.541z" fill="#224DE5"/><path fill-rule="evenodd" clip-rule="evenodd" d="M31.838 11.16 21.633 28.828a1.033 1.033 0 0 0 .893 1.545h3.742c.37 0 .718-.196.914-.522l9.9-17.146a1.033 1.033 0 0 0-.892-1.545h-4.352zM44.11 11.16l-8.029 13.904-4.025 6.985c-.936 1.61.24 3.633 2.11 3.633h.545c.87 0 1.675-.457 2.11-1.218l9.683-16.776a2.397 2.397 0 0 0 0-2.416l-2.393-4.112zM3.508 11.16l8.029 13.904 4.025 6.985c.936 1.61-.239 3.633-2.11 3.633h-.544c-.87 0-1.676-.457-2.11-1.218L1.113 17.688a2.397 2.397 0 0 1 0-2.416l2.394-4.112z" fill="#224DE5"/><path d="M55.752 19.646V5.916h3.199l5.679 9.335h-1.697l5.526-9.335h3.199l.043 13.73h-3.568l-.044-8.29h.61l-4.135 6.94h-1.718l-4.265-6.94h.74v8.29h-3.569zM74.465 19.646V5.916h3.873v13.73h-3.873zM84.996 19.646h-3.873V5.916h3.873v13.73zm5.57-5.353h-5.852v-3.22h5.853v3.22zm-.282-8.377h3.873v13.73h-3.873V5.916zM95.267 19.646l6.049-13.73h3.83l6.07 13.73h-4.047L102.426 7.83h1.523l-4.722 11.815h-3.96zm3.307-2.677 1.001-2.872h6.702l1.001 2.872h-8.704zM112.326 19.646V5.916h3.873v13.73h-3.873zM118.963 19.646V5.916h3.873v10.64h6.549v3.068h-10.422v.022z" fill="#224DE5"/><path d="M143.507 19.929a8.58 8.58 0 0 1-3.025-.522 7.062 7.062 0 0 1-2.393-1.48c-.675-.631-1.197-1.393-1.588-2.263a7.272 7.272 0 0 1-.566-2.872c0-1.045.196-2.002.566-2.873a6.639 6.639 0 0 1 1.588-2.263 7.16 7.16 0 0 1 2.415-1.48c.936-.347 1.959-.521 3.068-.521 1.284 0 2.459.217 3.482.652 1.022.436 1.871 1.045 2.524 1.872l-2.459 2.22c-.479-.501-.979-.893-1.523-1.154a4.141 4.141 0 0 0-1.806-.392c-.588 0-1.132.087-1.61.283a3.659 3.659 0 0 0-1.241.783 3.707 3.707 0 0 0-.805 1.24c-.195.48-.283 1.023-.283 1.61 0 .567.088 1.11.283 1.59.196.478.457.892.805 1.24.349.348.74.609 1.219.805.479.195 1.001.283 1.588.283.588 0 1.132-.088 1.698-.283.544-.196 1.109-.522 1.675-.98l2.176 2.72a8.477 8.477 0 0 1-2.72 1.284 9.822 9.822 0 0 1-3.068.5zm2.328-2.263v-5.179h3.438v5.68l-3.438-.501zM158.651 19.929c-1.088 0-2.11-.174-3.046-.522a6.862 6.862 0 0 1-2.415-1.502 6.578 6.578 0 0 1-1.589-2.263 7.163 7.163 0 0 1-.565-2.85c0-1.023.195-1.98.565-2.85.37-.871.914-1.611 1.589-2.264.674-.653 1.501-1.153 2.415-1.501.936-.348 1.937-.522 3.046-.522 1.11 0 2.133.174 3.047.522a6.97 6.97 0 0 1 2.393 1.501c.675.653 1.219 1.393 1.589 2.263.391.87.587 1.806.587 2.85a6.9 6.9 0 0 1-.587 2.851c-.392.87-.914 1.632-1.589 2.263a7.26 7.26 0 0 1-2.393 1.48 8.528 8.528 0 0 1-3.047.544zm0-3.22c.523 0 1.001-.088 1.458-.284a3.37 3.37 0 0 0 1.175-.783c.327-.348.588-.761.784-1.24.195-.479.282-1.023.282-1.61 0-.61-.087-1.132-.282-1.61a4.009 4.009 0 0 0-.784-1.24 3.097 3.097 0 0 0-1.175-.784 4.041 4.041 0 0 0-1.458-.283c-.522 0-1.001.087-1.457.283a3.37 3.37 0 0 0-1.175.783 4.009 4.009 0 0 0-.784 1.24c-.196.48-.283 1.023-.283 1.61 0 .588.087 1.132.283 1.61.196.48.457.893.784 1.241.326.348.718.61 1.175.784.456.195.935.282 1.457.282zM168.334 19.646V5.916h3.874v10.64h6.549v3.068h-10.423v.022zM180.28 19.646V5.916h7.029c1.806 0 3.155.326 4.047 1 .892.653 1.327 1.524 1.327 2.59 0 .696-.196 1.327-.566 1.85-.37.522-.892.957-1.566 1.262-.675.304-1.48.457-2.394.457l.392-.936c.957 0 1.806.152 2.524.435.718.305 1.284.718 1.675 1.284.392.566.588 1.24.588 2.024 0 1.196-.479 2.11-1.436 2.785-.958.652-2.372 1-4.2 1h-7.42v-.021zm3.852-2.807h3.264c.674 0 1.175-.109 1.523-.348.348-.24.522-.588.522-1.045 0-.478-.174-.827-.522-1.044-.348-.24-.849-.348-1.523-.348h-3.525v-2.677h2.937c.653 0 1.153-.109 1.48-.326.326-.218.5-.566.5-1.001 0-.435-.174-.783-.5-1-.327-.219-.827-.327-1.48-.327h-2.676v8.116zM193.727 19.646l6.049-13.73h3.83l6.071 13.73h-4.047L200.886 7.83h1.523l-4.743 11.815h-3.939zm3.308-2.677 1.001-2.872h6.701l1.001 2.872h-8.703zM210.787 19.646V5.916h3.198l7.572 9.139h-1.501v-9.14h3.808v13.73h-3.22l-7.573-9.138h1.502v9.139h-3.786z" fill="#F15A24"/><path d="M56.078 29.807h-.5v-6.854h4.591v.457h-4.09v6.397zm-.065-3.481h3.72v.457h-3.72v-.457zM63.498 29.851c-.435 0-.827-.087-1.131-.24a1.577 1.577 0 0 1-.74-.718c-.174-.326-.261-.718-.261-1.196v-2.981h.5v2.959c0 .566.153 1.023.435 1.306.305.304.718.456 1.24.456.392 0 .719-.087 1.002-.239.282-.174.5-.392.652-.696.153-.305.218-.653.218-1.045v-2.72h.5v5.114h-.478v-1.414l.065.174c-.152.391-.392.718-.74.935-.37.174-.783.305-1.262.305zM67.959 29.807V22.54h.5v7.267h-.5zM70.527 29.807V22.54h.5v7.267h-.5zM72.659 27.392v-.435h2.524v.435h-2.524zM78.099 29.85a3.54 3.54 0 0 1-1.197-.195c-.37-.13-.653-.283-.849-.479l.218-.391c.196.174.457.304.783.435.326.13.675.174 1.066.174.544 0 .914-.087 1.154-.261a.818.818 0 0 0 .348-.696.734.734 0 0 0-.174-.5 1.168 1.168 0 0 0-.479-.284c-.196-.065-.435-.108-.675-.152-.239-.044-.478-.087-.718-.152a3.484 3.484 0 0 1-.674-.218c-.196-.109-.37-.24-.479-.413-.13-.174-.174-.414-.174-.697 0-.26.065-.5.218-.696.152-.218.37-.37.652-.5.283-.131.653-.196 1.088-.196.327 0 .653.043.958.13.326.087.587.218.783.37l-.217.392a1.839 1.839 0 0 0-.718-.348 3.412 3.412 0 0 0-.806-.11c-.5 0-.87.088-1.088.284a.818.818 0 0 0-.348.696c0 .218.066.392.174.522.11.13.283.218.48.305.195.065.434.13.674.174.239.043.478.087.718.152.239.044.457.13.674.218.196.087.37.217.479.392.13.174.174.391.174.674 0 .283-.087.522-.24.74-.152.218-.37.37-.674.5-.305.066-.675.13-1.131.13zM80.666 25.107v-.413h3.068v.413h-3.068zm2.329 4.744c-.457 0-.806-.13-1.045-.37-.24-.24-.348-.588-.348-1.023v-4.874h.5v4.83c0 .327.087.588.24.762.174.175.391.262.696.262.326 0 .588-.087.783-.283l.196.348c-.13.13-.283.217-.478.283-.153.021-.349.065-.544.065zM86.78 29.85c-.37 0-.717-.064-.978-.173-.283-.13-.501-.283-.632-.522-.13-.24-.217-.48-.217-.762 0-.261.065-.5.174-.718.13-.218.326-.392.61-.522.282-.13.652-.196 1.13-.196h1.872v.392h-1.871c-.522 0-.892.108-1.11.304a.942.942 0 0 0-.326.74c0 .326.13.588.37.783.239.196.587.305 1.044.305.435 0 .805-.109 1.088-.305a1.61 1.61 0 0 0 .653-.848l.13.326c-.13.37-.37.675-.696.892-.305.196-.718.305-1.24.305zm1.85-.043v-1.175l-.022-.174v-1.914c0-.48-.13-.85-.391-1.088-.261-.24-.631-.37-1.132-.37-.348 0-.674.065-.979.174-.304.13-.566.283-.783.457l-.24-.348a2.76 2.76 0 0 1 .914-.544c.37-.131.74-.196 1.132-.196.63 0 1.11.152 1.458.478.348.327.5.806.5 1.437v3.242h-.457v.021zM93.134 29.85c-.5 0-.935-.108-1.327-.326a2.308 2.308 0 0 1-.914-.913 2.762 2.762 0 0 1-.348-1.35c0-.5.109-.957.348-1.348.218-.392.522-.697.914-.914a2.667 2.667 0 0 1 1.327-.327c.414 0 .784.087 1.132.24.326.152.609.391.827.696l-.37.261a1.66 1.66 0 0 0-.697-.587 2.057 2.057 0 0 0-.892-.196 2.15 2.15 0 0 0-1.066.26 1.784 1.784 0 0 0-.74.762 2.348 2.348 0 0 0-.26 1.132c0 .435.086.805.26 1.131.174.327.435.566.74.762a2.21 2.21 0 0 0 1.066.261c.327 0 .61-.065.892-.196.283-.13.5-.326.697-.587l.37.26a1.98 1.98 0 0 1-.827.697c-.327.196-.718.283-1.132.283zM96.464 29.807V22.54h.5v7.267h-.5zm.37-1.414v-.61l3.372-3.089h.631l-2.241 2.11-.305.24-1.457 1.35zm3.633 1.414-2.24-2.806.325-.37 2.503 3.155h-.588v.021zM106.712 29.85c-.479 0-.914-.108-1.284-.325-.391-.218-.674-.523-.914-.914a2.757 2.757 0 0 1-.326-1.35c0-.522.109-.979.326-1.348.218-.392.523-.697.914-.914a2.561 2.561 0 0 1 1.284-.327c.457 0 .849.109 1.219.305.369.218.652.5.87.892.218.392.326.849.326 1.393 0 .522-.108.979-.304 1.392-.218.392-.501.697-.849.892a2.771 2.771 0 0 1-1.262.305zm.044-.456c.391 0 .739-.087 1.044-.261.305-.174.566-.435.74-.762.174-.326.261-.696.261-1.131 0-.435-.087-.805-.261-1.132-.174-.326-.435-.565-.74-.761a2.068 2.068 0 0 0-1.044-.261c-.392 0-.74.087-1.045.26a1.922 1.922 0 0 0-.74.762 2.349 2.349 0 0 0-.261 1.132c0 .435.087.805.261 1.131.174.327.436.588.74.762a2.07 2.07 0 0 0 1.045.261zm2.067.413v-1.675l.087-.892-.109-.892V22.54h.5v7.267h-.478zM113.436 29.85c-.523 0-.98-.108-1.371-.326a2.515 2.515 0 0 1-.936-.913c-.239-.392-.348-.849-.348-1.35 0-.5.109-.957.326-1.348.218-.392.501-.697.871-.914.37-.218.783-.327 1.262-.327a2.4 2.4 0 0 1 1.24.327c.37.217.653.522.87.914.218.391.327.848.327 1.349v.13h-4.526V27h4.243l-.196.196c0-.391-.087-.761-.239-1.066a1.907 1.907 0 0 0-.697-.74 1.984 1.984 0 0 0-1.022-.26c-.37 0-.718.086-1.023.26-.305.174-.522.436-.696.74a2.235 2.235 0 0 0-.261 1.088v.087c0 .413.087.783.283 1.11.195.326.435.566.761.761.327.175.696.262 1.11.262.326 0 .631-.066.914-.175.283-.108.522-.304.718-.544l.283.327c-.218.283-.501.479-.849.63-.348.153-.653.175-1.044.175zM118.419 29.807l-2.307-5.113h.522l2.154 4.852h-.239l2.176-4.852h.5l-2.306 5.113h-.5zM124.228 29.85c-.522 0-.979-.108-1.37-.326a2.508 2.508 0 0 1-.936-.913c-.239-.392-.348-.849-.348-1.35 0-.5.109-.957.326-1.348.218-.392.501-.697.87-.914.37-.218.784-.327 1.263-.327.456 0 .87.109 1.24.327.37.217.653.522.87.914.218.391.327.848.327 1.349v.13h-4.526V27h4.264l-.195.196c0-.391-.087-.761-.24-1.066a1.905 1.905 0 0 0-.696-.74 1.988 1.988 0 0 0-1.023-.26c-.37 0-.718.086-1.022.26-.305.174-.523.436-.697.74a2.235 2.235 0 0 0-.261 1.088v.087c0 .413.087.783.283 1.11.196.326.435.566.762.761.326.175.696.262 1.109.262.327 0 .631-.066.914-.175.283-.108.522-.304.718-.544l.283.327c-.217.283-.5.479-.848.63-.349.153-.675.175-1.067.175zM127.993 29.807V22.54h.5v7.267h-.5zM132.562 29.85c-.5 0-.935-.108-1.305-.326a2.302 2.302 0 0 1-.914-.913 2.758 2.758 0 0 1-.348-1.35c0-.5.108-.957.348-1.348.217-.392.522-.697.914-.914a2.64 2.64 0 0 1 1.305-.327c.479 0 .936.109 1.306.327.391.217.696.522.914.914.217.391.326.848.326 1.349 0 .5-.109.957-.326 1.349a2.315 2.315 0 0 1-.914.913 2.644 2.644 0 0 1-1.306.327zm0-.456c.392 0 .74-.087 1.066-.261.327-.174.566-.435.74-.762.174-.326.261-.696.261-1.131 0-.435-.087-.805-.261-1.132a1.91 1.91 0 0 0-.74-.761 2.147 2.147 0 0 0-1.066-.261c-.391 0-.74.087-1.044.26a1.915 1.915 0 0 0-.74.762 2.349 2.349 0 0 0-.261 1.132c0 .435.087.805.261 1.131.174.327.435.588.74.762.283.174.631.261 1.044.261zM136.631 31.7v-7.006h.479v1.675l-.087.893.109.892v3.568h-.501v-.021zm2.568-1.85c-.457 0-.849-.108-1.219-.304-.37-.217-.653-.5-.87-.892-.218-.392-.327-.849-.327-1.392 0-.544.109-1.001.327-1.393.217-.392.5-.696.87-.892.37-.218.762-.305 1.219-.305.478 0 .914.109 1.305.327.392.217.675.522.892.914.218.391.327.848.327 1.349 0 .5-.109.957-.327 1.349a2.395 2.395 0 0 1-.892.913 2.64 2.64 0 0 1-1.305.327zm-.022-.456c.392 0 .74-.087 1.066-.261.327-.174.566-.435.74-.762.174-.326.261-.696.261-1.131 0-.435-.087-.805-.261-1.132-.174-.326-.435-.565-.74-.761a2.147 2.147 0 0 0-1.066-.261c-.392 0-.74.087-1.045.26a1.92 1.92 0 0 0-.739.762 2.349 2.349 0 0 0-.261 1.132c0 .435.087.805.261 1.131.174.327.435.588.739.762.283.174.653.261 1.045.261zM145.313 29.85c-.522 0-.979-.108-1.371-.326a2.513 2.513 0 0 1-.935-.913c-.24-.392-.349-.849-.349-1.35 0-.5.109-.957.327-1.348.217-.392.5-.697.87-.914.37-.218.784-.327 1.262-.327.457 0 .871.109 1.241.327.369.217.652.522.87.914.217.391.326.848.326 1.349v.13h-4.526V27h4.243l-.195.196c0-.391-.087-.761-.24-1.066a1.905 1.905 0 0 0-.696-.74 1.988 1.988 0 0 0-1.023-.26c-.37 0-.718.086-1.022.26-.305.174-.523.436-.697.74a2.235 2.235 0 0 0-.261 1.088v.087c0 .413.087.783.283 1.11.196.326.435.566.762.761.326.175.696.262 1.109.262.327 0 .631-.066.914-.175.283-.108.522-.304.718-.544l.283.327c-.217.283-.5.479-.848.63-.349.153-.653.175-1.045.175zM149.099 29.807v-5.113h.479v1.393l-.044-.153a2.01 2.01 0 0 1 .718-.957c.349-.218.762-.326 1.284-.326v.478h-.13c-.566 0-1.023.174-1.328.544-.326.348-.478.849-.478 1.48v2.676h-.501v-.022z" fill="#1A1A1A"/></svg>