<svg xmlns="http://www.w3.org/2000/svg" width="235" height="176" fill="none" xmlns:v="https://vecta.io/nano"><g fill-rule="evenodd" fill="#224de5"><path d="M26.916 43.16h22.173l2.307 4.004c.326.587-.087 1.306-.762 1.306H30.463c-.305 0-.609-.174-.762-.435l-2.785-4.874zm-18.408 0h10.88a2.42 2.42 0 0 1 2.111 1.218l.261.457c.936 1.61-.239 3.634-2.111 3.634H9.639c-1.871 0-3.025-2.024-2.111-3.634l.979-1.675zm6.136-10.619H41.56a2.42 2.42 0 0 1 2.111 1.218l.261.457c.936 1.61-.239 3.634-2.111 3.634H15.776c-1.871 0-3.025-2.024-2.111-3.634l.979-1.675z"/><path d="M14.644 32.541l16.319 28.265c.413.696-.109 1.588-.914 1.588H26.35a1.07 1.07 0 0 1-.914-.522l-13.556-23.5a1 1 0 0 1 0-1.044l2.763-4.787z"/><path d="M36.838 43.16L26.633 60.828c-.392.696.109 1.545.892 1.545h3.743a1.07 1.07 0 0 0 .914-.522l9.901-17.146c.392-.696-.109-1.545-.892-1.545h-4.352zm12.273 0l-8.029 13.904-4.026 6.985c-.936 1.61.239 3.634 2.111 3.634h.544a2.42 2.42 0 0 0 2.111-1.219l9.683-16.776a2.4 2.4 0 0 0 0-2.415l-2.393-4.112zm-40.603 0l8.029 13.904 4.026 6.985c.936 1.61-.239 3.634-2.111 3.634h-.544a2.42 2.42 0 0 1-2.111-1.219L6.114 49.688a2.4 2.4 0 0 1 0-2.415l2.394-4.112z"/></g><path d="M60.752 51.646v-13.73h3.199l5.679 9.335h-1.697l5.527-9.335h3.199l.043 13.73h-3.568l-.044-8.29h.609l-4.134 6.941h-1.719l-4.265-6.941h.74v8.29h-3.568zm18.713 0v-13.73h3.873v13.73h-3.873zm10.531 0h-3.873v-13.73h3.873v13.73zm5.57-5.353h-5.853v-3.22h5.853v3.22zm-.283-8.377h3.873v13.73h-3.873v-13.73zm4.984 13.73l6.049-13.73h3.83l6.07 13.73h-4.047l-4.743-11.815h1.523l-4.722 11.815h-3.96zm3.307-2.676l1.001-2.872h6.702l1.001 2.872h-8.704zm13.752 2.676v-13.73h3.873v13.73h-3.873zm6.637 0v-13.73h3.873v10.64h6.549v3.068h-10.422v.022z" fill="#224de5"/><path d="M148.507 51.929a8.58 8.58 0 0 1-3.025-.522 7.06 7.06 0 0 1-2.393-1.48c-.675-.631-1.197-1.393-1.588-2.263a7.27 7.27 0 0 1-.566-2.872 7.27 7.27 0 0 1 .566-2.872 6.64 6.64 0 0 1 1.588-2.263 7.16 7.16 0 0 1 2.415-1.48c.936-.348 1.959-.522 3.068-.522 1.284 0 2.459.218 3.482.653s1.871 1.044 2.524 1.871l-2.459 2.219c-.479-.5-.979-.892-1.523-1.153s-1.153-.392-1.806-.392c-.588 0-1.132.087-1.61.283a3.66 3.66 0 0 0-1.241.783 3.71 3.71 0 0 0-.805 1.24c-.196.478-.283 1.023-.283 1.61 0 .566.088 1.11.283 1.588s.457.892.805 1.24a3.61 3.61 0 0 0 1.219.805c.479.196 1.001.283 1.588.283s1.132-.087 1.698-.283c.544-.196 1.109-.522 1.675-.979l2.176 2.72c-.783.566-1.697 1.001-2.72 1.284-1.066.348-2.089.501-3.068.501zm2.328-2.263v-5.179h3.438v5.679l-3.438-.501zm12.816 2.263c-1.088 0-2.11-.174-3.046-.522a6.87 6.87 0 0 1-2.415-1.501c-.696-.653-1.219-1.393-1.589-2.263s-.565-1.806-.565-2.85c0-1.023.195-1.98.565-2.85s.914-1.61 1.589-2.263 1.501-1.153 2.415-1.501c.936-.348 1.937-.522 3.046-.522s2.133.174 3.047.522a6.97 6.97 0 0 1 2.393 1.501c.675.653 1.219 1.393 1.589 2.263.391.87.587 1.806.587 2.85 0 1.023-.196 1.98-.587 2.85s-.914 1.632-1.589 2.263a7.26 7.26 0 0 1-2.393 1.48c-.914.348-1.937.544-3.047.544zm0-3.22c.523 0 1.001-.087 1.458-.283.457-.174.849-.457 1.175-.783.327-.348.588-.761.784-1.24s.282-1.023.282-1.61c0-.609-.087-1.131-.282-1.61a4.01 4.01 0 0 0-.784-1.24c-.326-.348-.718-.609-1.175-.783a4.04 4.04 0 0 0-1.458-.283 3.62 3.62 0 0 0-1.457.283 3.37 3.37 0 0 0-1.175.783 4.01 4.01 0 0 0-.784 1.24c-.196.479-.283 1.023-.283 1.61s.087 1.131.283 1.61.457.892.784 1.24.718.609 1.175.783a3.62 3.62 0 0 0 1.457.283zm9.683 2.937v-13.73h3.874v10.64h6.549v3.068h-10.423v.022zm11.946 0v-13.73h7.029c1.806 0 3.155.326 4.047 1.001.892.653 1.327 1.523 1.327 2.589 0 .696-.196 1.327-.566 1.85s-.892.957-1.566 1.262-1.48.457-2.394.457l.392-.936c.957 0 1.806.152 2.524.435.718.305 1.284.718 1.675 1.284s.588 1.24.588 2.024c0 1.197-.479 2.111-1.436 2.785-.958.653-2.372 1.001-4.2 1.001h-7.42v-.022zm3.852-2.807h3.264c.674 0 1.175-.109 1.523-.348s.522-.587.522-1.044c0-.479-.174-.827-.522-1.044-.348-.239-.849-.348-1.523-.348h-3.525v-2.676h2.937c.653 0 1.153-.109 1.48-.326s.5-.566.5-1.001-.174-.783-.5-1.001-.827-.326-1.48-.326h-2.676v8.116zm9.595 2.807l6.049-13.73h3.83l6.071 13.73h-4.047l-4.744-11.815h1.523l-4.743 11.815h-3.939zm3.308-2.676l1.001-2.872h6.701l1.001 2.872h-8.703zm13.752 2.676v-13.73h3.198l7.572 9.139h-1.501v-9.139h3.808v13.73h-3.22l-7.573-9.139h1.502v9.139h-3.786z" fill="#f15a24"/><path d="M61.078 61.807h-.5v-6.854h4.591v.457h-4.091v6.397zm-.065-3.482h3.721v.457h-3.721v-.457zm7.485 3.526c-.435 0-.827-.087-1.131-.239-.326-.152-.566-.392-.74-.718s-.261-.718-.261-1.197v-2.981h.501v2.959c0 .566.152 1.023.435 1.306.305.305.718.457 1.24.457.392 0 .718-.087 1.001-.239a1.68 1.68 0 0 0 .653-.696c.152-.305.217-.653.217-1.044v-2.72h.501v5.114h-.479v-1.414l.065.174c-.152.392-.392.718-.74.936-.37.174-.783.305-1.262.305zm4.461-.044V54.54h.501v7.268h-.501zm2.568 0V54.54h.501v7.268h-.501zm2.132-2.415v-.435h2.524v.435h-2.524zm5.44 2.459a3.54 3.54 0 0 1-1.197-.196c-.37-.13-.653-.283-.849-.479l.218-.392c.196.174.457.305.783.435s.675.174 1.066.174c.544 0 .914-.087 1.153-.261s.348-.413.348-.696a.73.73 0 0 0-.174-.5c-.131-.131-.283-.218-.479-.283s-.435-.109-.675-.152l-.718-.152c-.239-.043-.457-.13-.675-.218-.196-.109-.37-.239-.479-.413-.131-.174-.174-.413-.174-.696 0-.261.065-.5.218-.696.152-.218.37-.37.653-.501s.653-.196 1.088-.196c.326 0 .653.043.957.131.326.087.588.218.783.37l-.218.392a1.84 1.84 0 0 0-.718-.348c-.261-.065-.544-.109-.805-.109-.501 0-.87.087-1.088.283-.239.174-.348.413-.348.696a.79.79 0 0 0 .174.522c.109.13.283.218.479.305a5.05 5.05 0 0 0 .675.174l.718.152c.239.044.457.131.675.218.196.087.37.218.479.392.13.174.174.392.174.675a1.25 1.25 0 0 1-.239.74c-.152.218-.37.37-.675.5-.305.065-.675.131-1.131.131zm2.567-4.744v-.413h3.068v.413h-3.068zm2.328 4.744c-.457 0-.805-.131-1.044-.37s-.348-.587-.348-1.023v-4.874h.501v4.831c0 .326.087.587.239.762.174.174.392.261.696.261.326 0 .588-.087.783-.283l.196.348c-.131.13-.283.218-.479.283-.152.022-.348.065-.544.065zm3.787 0a2.62 2.62 0 0 1-.979-.174c-.283-.131-.501-.283-.631-.522s-.218-.479-.218-.762a1.59 1.59 0 0 1 .174-.718c.13-.218.326-.392.609-.522s.653-.196 1.132-.196h1.871v.392h-1.871c-.522 0-.892.109-1.11.305a.94.94 0 0 0-.326.74.97.97 0 0 0 .37.783c.239.196.587.305 1.044.305.435 0 .805-.109 1.088-.305a1.61 1.61 0 0 0 .653-.849l.131.326a1.77 1.77 0 0 1-.696.892c-.305.196-.718.305-1.24.305zm1.85-.044v-1.175l-.022-.174v-1.915c0-.479-.13-.849-.392-1.088s-.631-.37-1.132-.37c-.348 0-.675.065-.979.174a3.37 3.37 0 0 0-.783.457l-.239-.348a2.76 2.76 0 0 1 .914-.544 3.36 3.36 0 0 1 1.132-.196c.631 0 1.11.152 1.458.479s.5.805.5 1.436v3.242h-.457v.022zm4.503.044c-.501 0-.936-.109-1.327-.326a2.31 2.31 0 0 1-.914-.914 2.76 2.76 0 0 1-.348-1.349c0-.501.109-.957.348-1.349a2.31 2.31 0 0 1 .914-.914c.392-.218.827-.326 1.327-.326.413 0 .783.087 1.132.239a2.13 2.13 0 0 1 .827.696l-.37.261a1.66 1.66 0 0 0-.696-.587 2.05 2.05 0 0 0-.892-.196 2.15 2.15 0 0 0-1.066.261c-.326.174-.566.435-.74.761s-.261.696-.261 1.132.087.805.261 1.131.435.566.74.762a2.21 2.21 0 0 0 1.066.261 2.05 2.05 0 0 0 .892-.196c.283-.131.501-.326.696-.587l.37.261c-.218.305-.479.544-.827.696-.326.196-.718.283-1.132.283zm3.33-.044V54.54h.5v7.268h-.5zm.37-1.414v-.609l3.372-3.09h.631l-2.241 2.111-.305.239-1.457 1.349zm3.633 1.414L103.226 59l.327-.37 2.502 3.155h-.588v.022zm6.245.044c-.479 0-.914-.109-1.284-.326-.391-.218-.674-.522-.914-.914-.217-.392-.326-.849-.326-1.349 0-.522.109-.979.326-1.349.218-.392.523-.696.914-.914a2.56 2.56 0 0 1 1.284-.326 2.53 2.53 0 0 1 1.219.305c.369.218.652.5.87.892s.326.849.326 1.393a3.19 3.19 0 0 1-.304 1.393c-.218.392-.501.696-.849.892a2.77 2.77 0 0 1-1.262.305zm.044-.457c.391 0 .739-.087 1.044-.261a1.91 1.91 0 0 0 .74-.762c.174-.327.261-.696.261-1.131s-.087-.805-.261-1.132-.435-.566-.74-.761c-.305-.174-.653-.261-1.044-.261a2.07 2.07 0 0 0-1.045.261 1.92 1.92 0 0 0-.74.761c-.174.326-.261.696-.261 1.132s.087.805.261 1.131a1.93 1.93 0 0 0 .74.762 2.07 2.07 0 0 0 1.045.261zm2.067.413v-1.675l.087-.892-.109-.892V54.54h.5v7.268h-.478zm4.613.044c-.523 0-.98-.109-1.371-.326s-.696-.522-.936-.914-.348-.849-.348-1.349.109-.957.326-1.349a2.35 2.35 0 0 1 .871-.914c.37-.218.783-.326 1.262-.326a2.4 2.4 0 0 1 1.24.326c.37.218.653.522.87.914s.327.849.327 1.349v.065.065h-4.526V59h4.243l-.196.196c0-.392-.087-.762-.239-1.066a1.91 1.91 0 0 0-.697-.74c-.304-.174-.631-.261-1.022-.261-.37 0-.718.087-1.023.261s-.522.435-.696.74c-.174.326-.261.675-.261 1.088v.087c0 .413.087.783.283 1.11a2.13 2.13 0 0 0 .761.762c.327.174.696.261 1.11.261a2.53 2.53 0 0 0 .914-.174c.283-.109.522-.305.718-.544l.283.326c-.218.283-.501.479-.849.631s-.653.174-1.044.174zm4.983-.044l-2.307-5.113h.522l2.154 4.852h-.239l2.176-4.852h.5l-2.306 5.113h-.5zm5.809.044c-.522 0-.979-.109-1.37-.326s-.697-.522-.936-.914-.348-.849-.348-1.349.109-.957.326-1.349a2.35 2.35 0 0 1 .87-.914 2.42 2.42 0 0 1 1.263-.326c.456 0 .87.109 1.24.326s.653.522.87.914.327.849.327 1.349v.065.065h-4.526V59h4.264l-.195.196a2.39 2.39 0 0 0-.24-1.066c-.174-.326-.413-.566-.696-.74-.305-.174-.631-.261-1.023-.261a2.04 2.04 0 0 0-1.022.261c-.305.174-.523.435-.697.74-.174.326-.261.675-.261 1.088v.087c0 .413.087.783.283 1.11s.435.566.762.762c.326.174.696.261 1.109.261.327 0 .631-.065.914-.174s.522-.305.718-.544l.283.326c-.217.283-.5.479-.848.631s-.675.174-1.067.174zm3.765-.044V54.54h.5v7.268h-.5zm4.569.044c-.5 0-.935-.109-1.305-.326a2.3 2.3 0 0 1-.914-.914 2.76 2.76 0 0 1-.348-1.349c0-.501.108-.957.348-1.349a2.3 2.3 0 0 1 .914-.914 2.64 2.64 0 0 1 1.305-.326c.479 0 .936.109 1.306.326.391.218.696.522.914.914s.326.849.326 1.349-.109.957-.326 1.349a2.31 2.31 0 0 1-.914.914c-.391.218-.827.326-1.306.326zm0-.457c.392 0 .74-.087 1.066-.261s.566-.435.74-.762.261-.696.261-1.131-.087-.805-.261-1.132a1.91 1.91 0 0 0-.74-.761c-.304-.174-.674-.261-1.066-.261s-.74.087-1.044.261-.566.435-.74.761-.261.696-.261 1.132.087.805.261 1.131.435.587.74.762c.283.174.631.261 1.044.261zm4.069 2.307v-7.006h.479v1.675l-.087.892.109.892v3.569h-.501v-.022zm2.568-1.85a2.53 2.53 0 0 1-1.219-.305 2.29 2.29 0 0 1-.87-.892c-.217-.391-.327-.849-.327-1.393s.109-1.001.327-1.393.5-.696.87-.892c.37-.217.762-.305 1.219-.305a2.64 2.64 0 0 1 1.305.326c.392.218.675.522.892.914s.327.849.327 1.349-.109.957-.327 1.349-.522.696-.892.914a2.64 2.64 0 0 1-1.305.326zm-.022-.457c.392 0 .74-.087 1.066-.261s.566-.435.74-.762.261-.696.261-1.131-.087-.805-.261-1.132-.435-.566-.74-.761c-.304-.174-.674-.261-1.066-.261a2.07 2.07 0 0 0-1.045.261 1.92 1.92 0 0 0-.739.761c-.174.326-.261.696-.261 1.132s.087.805.261 1.131a1.92 1.92 0 0 0 .739.762c.283.174.653.261 1.045.261zm6.136.457c-.522 0-.979-.109-1.371-.326s-.696-.522-.935-.914-.349-.849-.349-1.349.109-.957.327-1.349a2.35 2.35 0 0 1 .87-.914c.37-.218.784-.326 1.262-.326.457 0 .871.109 1.241.326s.652.522.87.914.326.849.326 1.349v.065.065h-4.526V59h4.243l-.195.196a2.39 2.39 0 0 0-.24-1.066c-.174-.326-.413-.566-.696-.74-.305-.174-.631-.261-1.023-.261a2.04 2.04 0 0 0-1.022.261c-.305.174-.523.435-.697.74-.174.326-.261.675-.261 1.088v.087c0 .413.087.783.283 1.11s.435.566.762.762c.326.174.696.261 1.109.261.327 0 .631-.065.914-.174s.522-.305.718-.544l.283.326c-.217.283-.5.479-.848.631s-.653.174-1.045.174zm3.786-.044v-5.113h.479v1.393l-.044-.152a2.01 2.01 0 0 1 .718-.957c.349-.218.762-.326 1.284-.326v.479h-.065-.065c-.566 0-1.023.174-1.328.544-.326.348-.478.849-.478 1.48v2.676h-.501v-.022z" fill="#1a1a1a"/></svg>