<svg width="42" height="45" fill="none" xmlns="http://www.w3.org/2000/svg"><circle cx="15" cy="30" r="15" fill="#F1F0FB"/><g clip-path="url(#a)" fill="#224DE5"><path d="M24.252 37a10.8 10.8 0 0 1-9.383-5.459 11.031 11.031 0 0 1-1.274-3.48l-6.377-1.824A.306.306 0 0 1 7 25.942c0-.136.088-.257.218-.295l6.442-1.843a10.97 10.97 0 0 1 3.784-6.226.295.295 0 0 1 .421.047.301.301 0 0 1-.046.426 10.326 10.326 0 0 0-3.608 6.053.304.304 0 0 1-.213.234l-5.595 1.6 5.54 1.585a.302.302 0 0 1 .213.243c.203 1.221.616 2.39 1.232 3.467 2.815 4.92 9.068 6.614 13.945 3.774 4.872-2.844 6.549-9.163 3.738-14.089a10.164 10.164 0 0 0-6.197-4.804 10.062 10.062 0 0 0-7.744 1.03.301.301 0 0 1-.412-.113.307.307 0 0 1 .11-.416 10.65 10.65 0 0 1 8.203-1.095 10.735 10.735 0 0 1 6.563 5.085c2.978 5.215 1.204 11.905-3.955 14.917-1.7.987-3.553 1.46-5.387 1.46V37z"/><path d="M25.382 21.835c-4.775 0-9.152-3.218-10.448-8.088-1.538-5.818 1.894-11.82 7.65-13.373 5.758-1.557 11.7 1.909 13.242 7.723.32 1.207.431 2.451.334 3.695l5.696 3.429c.116.07.172.21.135.341a.302.302 0 0 1-.287.225l-6.693.098a10.858 10.858 0 0 1-2.64 3.368.3.3 0 0 1-.426-.037.311.311 0 0 1 .032-.43 10.305 10.305 0 0 0 2.57-3.34.297.297 0 0 1 .265-.169l5.812-.084-4.946-2.975a.295.295 0 0 1-.143-.29c.12-1.235.018-2.47-.302-3.672C33.783 2.76 28.175-.51 22.738.959c-5.438 1.469-8.675 7.133-7.22 12.63 1.458 5.486 7.067 8.756 12.504 7.287.815-.22 1.598-.538 2.325-.945a.3.3 0 0 1 .408.117.306.306 0 0 1-.116.412c-.769.43-1.598.767-2.46 1-.93.253-1.87.375-2.792.375h-.005z"/><path d="M24.738 19.955a1.47 1.47 0 0 1-1.463-1.474c0-.814.658-1.478 1.463-1.478a1.47 1.47 0 0 1 1.46 1.478c0 .814-.654 1.474-1.46 1.474zm0-2.34a.867.867 0 0 0-.861.871.86.86 0 1 0 1.718 0 .866.866 0 0 0-.857-.87zM29.56 7.33h-8.828a.302.302 0 0 1-.3-.304c0-.169.134-.304.3-.304h8.828c.167 0 .3.135.3.304a.302.302 0 0 1-.3.304zM27.193 9.435h-8.832a.302.302 0 0 1-.3-.304c0-.169.133-.304.3-.304h8.832c.167 0 .301.135.301.304a.302.302 0 0 1-.3.304zM32.116 29.483H23.29a.302.302 0 0 1-.301-.304c0-.168.134-.304.3-.304h8.828c.167 0 .301.136.301.304a.302.302 0 0 1-.3.304zM29.745 31.583h-8.832a.302.302 0 0 1-.301-.304c0-.168.134-.304.3-.304h8.833c.167 0 .301.136.301.304a.302.302 0 0 1-.3.304z"/></g><defs><clipPath id="a"><path fill="#fff" transform="translate(7)" d="M0 0h35v37H0z"/></clipPath></defs></svg>