<svg width="47" height="36" viewBox="0 0 47 36" fill="none" xmlns="http://www.w3.org/2000/svg">
<path fill-rule="evenodd" clip-rule="evenodd" d="M21.9163 11.1597H44.0889L46.3954 15.1634C46.7218 15.7509 46.3084 16.469 45.6339 16.469H25.463C25.1584 16.469 24.8538 16.2949 24.7014 16.0338L21.9163 11.1597Z" fill="#224DE5"/>
<path fill-rule="evenodd" clip-rule="evenodd" d="M3.50784 11.1597H14.3875C15.2578 11.1597 16.0629 11.6167 16.4981 12.3782L16.7592 12.8352C17.6949 14.4454 16.5199 16.469 14.6486 16.469H4.63933C2.76803 16.469 1.61479 14.4454 2.52868 12.8352L3.50784 11.1597Z" fill="#224DE5"/>
<path fill-rule="evenodd" clip-rule="evenodd" d="M9.64408 0.541199H36.5603C37.4306 0.541199 38.2357 0.998138 38.6709 1.75971L38.932 2.21666C39.8677 3.82684 38.6927 5.85046 36.8214 5.85046H10.7756C8.90426 5.85046 7.75102 3.82684 8.66491 2.21666L9.64408 0.541199Z" fill="#224DE5"/>
<path fill-rule="evenodd" clip-rule="evenodd" d="M9.64394 0.541199L25.9634 28.8065C26.3768 29.5028 25.8546 30.3949 25.0495 30.3949H21.3504C20.9805 30.3949 20.6324 30.1991 20.4365 29.8727L6.88052 6.37268C6.68468 6.04629 6.68468 5.65462 6.88052 5.32824L9.64394 0.541199Z" fill="#224DE5"/>
<path fill-rule="evenodd" clip-rule="evenodd" d="M31.8384 11.1597L21.6333 28.8282C21.2417 29.5245 21.7421 30.3732 22.5255 30.3732H26.2681C26.638 30.3732 26.9861 30.1773 27.1819 29.8509L37.0824 12.7046C37.4741 12.0083 36.9736 11.1597 36.1903 11.1597H31.8384Z" fill="#224DE5"/>
<path fill-rule="evenodd" clip-rule="evenodd" d="M44.1107 11.1597L36.0815 25.0639L32.056 32.0486C31.1204 33.6588 32.2954 35.6824 34.1667 35.6824H34.7107C35.581 35.6824 36.3861 35.2255 36.8213 34.4639L46.5042 17.6875C46.9394 16.9477 46.9394 16.012 46.5042 15.2722L44.1107 11.1597Z" fill="#224DE5"/>
<path fill-rule="evenodd" clip-rule="evenodd" d="M3.50775 11.1597L11.5369 25.0639L15.5624 32.0486C16.498 33.6588 15.323 35.6824 13.4517 35.6824H12.9078C12.0374 35.6824 11.2323 35.2255 10.7971 34.4639L1.11423 17.6875C0.679045 16.9477 0.679045 16.012 1.11423 15.2722L3.50775 11.1597Z" fill="#224DE5"/>
</svg>
